<?xml version='1.0' encoding='utf-8'?>
<svg xmlns="http://www.w3.org/2000/svg" version="1.1" id="Layer_1" x="0px" y="0px" viewBox="0 0 2595.023 1532" enable-background="new 0 0 2595.023 1532"> <path d="M2562.599,1087.627c2.214-2.525,0.997-5.903,2.027-15.525c9.436-0.11,10.613,0.391,11.425-0.805 c-0.103-0.534-0.135-1.023-0.2-1.519c2.118-11.801-0.14-82.946,1.661-88.938c-3.083-0.47-6.61-1.577-9.442,0.206 c3.49,4.799,3.155-6.416,2.572,73.538c-0.502,0.111-1.003,0.222-1.505,0.333c-0.428,3.405,0.811,7.301-0.314,10.529 c-55.668,2.761-361.366,3.381-362.368,3.051c-0.637-1.822-0.341-3.817-0.786-5.678c-0.865-3.561,1.233-37.397-0.257-37.748 c-1.776-0.418-3.585-0.335-5.361-0.483c-0.045-1.828-0.657-3.553-0.972-5.323c-0.917-12.334-0.634-24.905-0.917-37.295 c-0.239-10.442,6.146-11.478,8.705-10.482c2.388,0.225,3.63,2.542,4.789,4.37c0.721,1.223-0.425,2.446-0.953,3.508 c0.798,2.021,0.45,4.319,1.628,6.224c0.193-2.156,0.155-4.312,0.257-6.462c1.126,0.438,2.234,0.972,3.36,1.526 c-0.721-4.029-2.594-7.904-5.722-10.569c-23.754-9.112-12.147,25.396-13.806,51.8c-6.939,0.039-13.871-0.051-20.796,0.045 c1.36,5.307,11.397,28.067,11.714,29.08c0.174,1.461-0.438,2.877-0.688,4.312c0.933,0.367,1.905,0.721,2.903,1.088 c1.68,4.19,3.437,8.361,5.438,12.422c-0.001,0-80.73,0.92-80.731,0.92c-0.321-5.397-4.306-15.425-10.105-21.266 c-2.053-2.163-5.317-2.665-7.087-5.117c-2.613-2.613-3.353-6.488-5.786-9.191c-1.339-0.154-2.665-0.026-3.965,0.077 c-0.122,2.993-1.036,6.417-3.984,7.794c-1.744,0.682-3.16,2.523-5.123,2.336c-2.163-0.206-8.244-14.487-9.352-16.425 c-12.887-22.531-15.222-24.836-14.585-29.492c1.325-0.136,2.667-0.24,4.025-0.32c0.203,0.356,0.238,0.418,0.441,0.774 c-2.964,4.831,5.943,13.928,9.616,8.223c1.223-2.819,1.133-6.121-0.193-8.882c-3.253-6.102-3.007-3.758-10.253-5.362 c-2.555-0.56-4.942,0.772-7.317,1.454c-1.143,0.328-7.222-21.421-19.047-13.735c-2.066,1.429-4.685,1.01-7.022,1.352 c-2.137,0.393-3.862-1.268-5.87-1.577c-7.565-1.266-0.792-3.879-16.239-5.136c-15.587,0.577-26.274-4.691-33.521,3.263 c-1.645,1.991,14.598,2.673-254.507-22.347c-1.918-0.837-3.27-2.761-4.634-4.3c-50.604-80.085-29.453-50.805-37.074-66.681 c-0.895-1.744,0.985-2.929,1.699-4.306c1.963-3.688,1.294-7.975,0.978-11.946c2.319-2.682,5.721-3.561,0.418-9.957 c-24.137-26.676-22.929-28.005-30.959-27.754c-0.135-2.311-0.18-4.621-0.161-6.919c-9.835-0.045-19.663-0.039-29.491-0.019 c-7.054-0.533-5.443,15.806-0.599-160.896c-0.875-0.019-1.732-0.026-2.562-0.019c-4.897,172.952-3.2,158.633-6.7,159.564 c-1.886,2.163-4.976,1.3-7.473,1.371c-9.435-0.058-18.871,0.277-28.3,0.135c-0.032-2.24-0.032-4.467-0.052-6.687 c-2.755-0.071-5.503,0.148-8.245,0.103c0.187-2.407-0.714-5.252,1.165-7.177c-2.143-4.12-2.225-3.551-0.399-6.726 c1.519-2.195,1.409-5.124,3.044-7.267c0.701-0.624,1.577-1.01,2.311-1.622c0.663-1.796,1.024-3.688,1.584-5.516 c2.072-0.154,4.428,0.483,6.288-0.772c2.06-1.229,4.493-2.317,5.548-4.647c2.096-4.288,4.539-30.532-2.407-34.074 c-5.245-0.888-10.659-1.056-15.917-0.303c-0.27-2.717-0.558,4.28,1.911-97.743c-0.727-0.322-1.435-0.637-2.124-0.953 c-1.006,4.651-0.244,2.701-2.703,96.854c-41.21-23.287-53.504,16.175-39.577,31.216c-0.681,1.297-9.526,35.608-9.809,38.721h-14.9 c0.309-32.626,0.882-65.245,1.152-97.871c-0.489,0.032-1.461,0.097-1.944,0.135c-0.006,1-0.76,92.874-1.596,97.73 c-12.165,0.129-26.202-0.445-28.198,0.882c-0.212,2.652-0.032,5.323-0.09,7.994c-4.718-0.09-9.435-0.225-14.147-0.232 c0.078-5.664,0.921-11.283,1.3-16.934c-12.783-0.425-25.572-0.856-38.348-1.39c-0.045-0.534-0.128-1.609-0.167-2.143 c-4.325,0.039-8.65,0.071-12.963,0.212c-0.051-23.802,0-47.61-0.026-71.411h-1.918c-0.019,23.802,0.007,47.61-0.013,71.418 c-6.662-0.006-13.317,0.238-19.972,0.206c0.056-0.937,0.02-68.782,0.019-69.693h-1.918c-0.026,16.554,0.026,33.115-0.032,49.676 c-10.447,0.443-8.955,3.604-7.827,20.217c-13.208,0.135-26.408,0.444-39.61,0.47c-0.637-22.624-1.358-45.241-2.053-67.865 c47.198-4.106,94.396-8.168,141.594-12.235c0.141-2.227,0.167-4.461,0.071-6.688c-13.717-0.093-7.217,0.399-11.978-2.111 c-1.571-0.225-3.27,0.773-4.66-0.302c-4.387-7.031,4.943-4.545,8.753-6.919c0.637-2.793,1.731-5.394,3.115-7.891 c3.054-18.201-7.056-10.835-9.886-15.608c6.082-2.117,12.75,0.071,18.891-1.731c4.869-3.013,81.24,1.26,82.102-0.335 c1.461-3.244-0.122-6.88-1.712-9.822c-13.477-0.263-161.792-3.053-182.857-3.901c0.721-0.624,1.494-1.203,2.279-1.77 c-0.792-0.463-1.558-0.914-2.317-1.371c-0.039-3.392-1.068-6.99,0.521-10.189c0.509-0.991,0.328-2.105,0.174-3.147 c-4.016,1.094-8.541-0.702-12.158,1.809c0.695,0.438,1.41,0.882,2.137,1.339c-0.007,2.864,0,5.735,0,8.606 c-1.879,0.348-3.579,1.21-5.317,1.931c-0.264,0.701-0.534,1.403-0.805,2.105c-0.868,0.721-1.677,0.287-12.924,0.071 c0.032,3.81,0.135,7.627,0.328,11.444c6.912,0.141,13.832,0.116,20.745,0.289c-0.49,1.004-0.605,2.285-1.448,3.07 c-1.597,0.561-35.05,5.82-36.05,5.973c-0.129-3.984-0.669-8.045,0.534-11.92c0.399-4.737-0.174-9.597,1.216-14.231 c1.493-0.682,3.128-0.966,4.75-1.255c-0.109-3.926-0.599-7.82-0.985-11.714c-0.238-1.358,0.927-3.167-0.483-4.068 c-2.124-0.2-4.255,0.026-6.359,0.058c-1.03-32.961-1.624-27.367,1.776-31.352c1.01-0.89,6.828-6.716,8.361-9.976 c3.668-0.109,7.337,0.045,11.006,0.045c1.545-0.508,3.057-1.133,4.641-1.57c1.706-3.733,1.339-7.923,2.324-11.837 c1.648-0.154,3.308-0.199,4.982-0.257c-4.219-8.099-0.54-13.969-1.146-16.638c-3.739,3.096-9.506-0.824-12.769,2.967 c0.701,0.38,1.422,0.766,2.169,1.152c-0.348,2.813,0.702,5.806-0.174,8.509c-2.645,1.319-5.921,2.15-7.164,5.162 c-1.416,2.298,0.496,5.11,2.909,5.555c2.542-0.122,5.091-0.257,7.659-0.206c-0.019,0.856-0.026,1.719-0.013,2.594 c-8.934,0.315-17.867,1.036-26.801,0.985c-0.072-2.445-0.212-24.598,0.148-27.033c0.902-1.008,33.325-37.227,34.698-38.013 c2.626-0.36,5.317,0.18,7.93-0.393c3.065-0.68,3.514-9.891,7.453-12.686c8.423-0.88,5.761,5.576,6.153,9.506 c-5.729-0.271-6.756-0.609-7.312,1.808c-1.062,2.575,1.963,4.596,1.564,7.215c-0.193,5.786,0.444,11.643-0.515,17.385 c1.893,7.02,8.178,6.405,10.189,5.201c2.962-1.625,4.459-4.76,4.712-19.322c0.148-3.701,1.197-7.453,0.624-11.128 c-1.235-0.83-2.78-0.843-4.171-1.094c-0.428-17.066-5.631-12.041-10.156-16.149c-1.513-1.249-3.489-1.59-5.31-2.079 c-0.303-2.652-0.103-5.31,0.386-7.923c1.629-0.606,3.38-0.979,4.899-1.879c0.143-0.337,0.29-0.681,0.433-1.018 c-0.826-4.986,2.623-19.084-2.68-17.577c-3.688,0.502-7.691-0.38-10.974,1.796c0.721,0.463,1.461,0.92,2.227,1.371 c0.264,2.987,0.309,5.992-0.187,8.959c-1.873,0.515-4.042,0.534-5.548,1.86c-1.248,4.801,3.946,7.093,6.372,10.266 c0.354,1.828,0.341,3.707,0.451,5.567c-2.813,0.927-5.613,1.918-8.535,2.401c-2.356-3.295-6.263-5.825-10.453-5.104 c-0.824,0.721-1.268,1.738-1.77,2.678c-2.665,0.103-5.323,0.083-7.981,0.077c-0.013-2.922-0.02-5.838,0.032-8.753 c2.974-0.521,5.928-1.313,8.979-1.287c2.652-0.148,5.38,0.727,8,0.006c1.172-2.014,2.568-4.229,2.504-6.629 c-0.856-1.538-2.021-2.922-3.386-4.01c-5.407-1.847-11.18-1.23-16.767-1.661c0.406-1.764,0.656-3.546,0.773-5.342 c18.438,3.069,16.334,1.683,17.9-4.081c0.476-2.394,0.888-6.057-2.002-7.061c-4.237-0.306-6.463,2.269-16.696,0.302 c0.019-3.147,0-6.301,0.052-9.442c4.776,0.766,9.365,2.53,14.179,3.09c5.153,0.793,4.595-9.071,3.154-11.733 c-2.723-2.334-3.73-0.129-18.009,0.257c-0.348-2.137,0.849-4.995-0.843-6.629c-1.085-0.121-12.637-0.467-15.891,0.508 c0.199-4.789-0.798-9.564-0.316-14.327c0.219,1.995,0.168,4.016,0.193,6.031c0.328-0.013,0.978-0.032,1.306-0.045 c-0.052-2.587,0.727-5.085,0.772-7.653c0.267-3.748-6.691-0.758,4.113-10.845c1.815-0.341,3.688-0.167,5.542-0.109 c4.087,0.38,8.181-0.103,12.268-0.264c-0.232-2.073-0.528-4.139-0.76-6.211c17.582,0.539,30.881-4.721,44.894,6.011 c0.985,2.42,1.796,4.937,3.296,7.125c1.01-1.068,2.22-1.976,3.089-3.192c3.693-7.703,2.917-19.317,0.991-27.606 c-0.573-1.866-2.691-2.426-4.222-3.237c-0.419,1.274-0.74,2.587-1.3,3.81c-19.35,14.673-36.041,8.048-37.041,8.084 c-3.727-0.109-7.453,0.058-11.174-0.071c-0.946-7.37-2.13-14.707-3.186-22.057c-2.974,1.551-6.198,2.581-9.59,2.175 c0.238-1.139,0.528-2.272,0.811-3.398c-1.139,0.18-2.253,0.399-3.347,0.669c0.547,0.869,1.114,1.744,1.66,2.645 c-3.347,0.109-6.687,0.058-10.021,0.064c-0.251-7.485-0.527-14.958-0.734-22.437c1.487,0.953,3.25,1.139,4.95,1.538 c1.255,0.843,2.555,1.641,4.113,1.841c1.197-3.34,0.824-6.951,0.553-10.414c5.8-0.624,11.509-1.969,17.34-2.375 c26.078-6.113,32.424,1.407,30.888-24.091c0.554-0.032,1.661-0.097,2.214-0.129c0-0.438,0.007-1.32,0.007-1.757 c-0.67-0.348-1.32-0.689-1.957-1.017c-0.097-4.46-0.303-8.998,1.467-13.201c-4.223,0.348-9.088-1.281-12.712,1.564 c0.721,0.425,1.468,0.85,2.234,1.268c-0.013,2.974,0.077,5.96-0.142,8.934c-1.313,0.322-2.607,0.637-3.875,1.023 c0.76,1.017,1.416,2.137,2.33,3.044c1.339,0.528,2.761,0.818,4.184,1.126c-0.187,1.867-0.373,3.733-0.663,5.593 c-2.253-1.667-4.602-3.27-6.54-5.291c-0.261-2.783,1.729-50.236,3.038-94.582c-0.483,0.032-1.454,0.097-1.937,0.129 c-1.088,36.172-2.465,72.345-3.669,108.517c-14.089,2.272-28.14,4.744-42.235,6.926c0.064-2.575-0.534-5.233,0.058-7.749 c1.184-0.959,2.581-1.609,4.119-1.796c0.077,1.822,0.773,3.585,2.433,4.525c1.686,1.364,3.829,0.167,5.561-0.496 c6.944-6.855,1.53-12.206,0.38-19.084c12.252-2.471,28.071-2.808,29.343-4.808c1.047-8.131-4.313-5.934-5.722-5.973 c0.045-3.257-0.187-6.591,0.631-9.777c1.371-2.124,4.087-0.013,5.844,0.579c-0.715-1.815-1.332-3.662-2.027-5.471 c-1.211-1.327-2.989-1.88-4.586-2.543c-0.044-0.693-0.051-0.805-0.094-1.498c1.485-0.853,2.891-1.951,2.865-3.824 c1.995-0.463,3.379-2.047,3.141-4.158c-4.222,0.045-8.548-0.534-12.628,0.805c2.311,3.205,0.875,7.067,1.59,10.671 c-2.15,1.564-5.967,1.59-6.488,4.692c-0.567,2.536,1.86,4.242,2.549,6.469c0.077,1.339-0.219,2.671-0.412,3.997 c-4.081-1.487-8.251,0.727-12.409-0.225c-4.605-14.239,10.484-16.91-4.686-36.88c3.925-0.767,26.766-1.699,27.767-1.744 c1.983-0.953,2.021-3.604,2.581-5.477c-2.169-1.236-4.525-2.195-6.449-3.804c-1.528-5.877,2.27-8.583,1.049-11.792 c-3.971,0.978-8.387-0.534-11.959,1.931c0.071,1.056,1.236,1.345,1.937,1.957c0.026,2.697,0.013,5.4,0.026,8.103 c-2.336,1.056-5.143,1.538-6.726,3.733c-2.948,0.322-5.864,0.972-8.837,0.837c0.457-7.363,0.315-14.797,1.326-22.109 c0.888,0.219,1.796,0.457,2.703,0.708c4.212-10.596,0.105-5.415,0.566-17.887c-1.641-0.901-3.34-1.699-5.13-2.227 c-0.007-2.484-0.007-4.969-0.007-7.447h-1.918c-0.013,2.51-0.013,5.027-0.006,7.537c-1.422,0.36-2.819,0.766-4.203,1.178 c-1.732,6.147-0.65,12.59-0.953,18.884c0.489,0.039,1.461,0.122,1.944,0.161c0.161,6.958-0.276,13.922-0.238,20.886 c-2.864-0.245-5.728,0.586-8.56,0.116c-10.948-4.709-8.174-3.895-4.062-18.775c-3.778,0.006-7.55,0.142-11.315,0.225 c-0.154-30.026-0.418-60.045-0.541-90.07c0.38,0,1.152-0.006,1.538-0.006c0,9.23-0.007,18.453,0.006,27.683h1.918 c0.013-10.086,0-20.165,0.007-30.251c4.074-0.006,8.148-0.006,12.229,0c0.006,12.017-0.006,24.033,0.006,36.044h1.918 c0.032-11.367,1.03-36.089,1.081-37.189c-1.521-2.883-1.058,1.932-1.081-36.829h-1.918c-0.013,12.01,0,24.027-0.006,36.044h-12.229 c-0.007-9.442,0.006-18.884-0.007-28.32h-1.918c-0.019,7.936,0,15.872-0.006,23.815h-7.08c-0.007-10.73,0.006-21.459-0.007-32.182 h-1.918c-0.013,12.229,0,24.458-0.006,36.681c-4.081,0.006-8.155,0.006-12.229,0.006c-0.007-11.585,0.006-23.171-0.007-34.756 h-1.918c-0.013,24.246-0.006,48.485-0.006,72.731c0.508,0,1.525,0.006,2.034,0.006c-0.238-12.01-0.045-24.033-0.103-36.05 c4.286,0,8.58-0.006,12.873,0c0.006,11.585-0.013,23.171,0.006,34.756h1.925c0.013-10.736-0.026-21.472,0.019-32.208 c0.965,0.026,1.963,0.051,2.967,0.084c0.391,125.795,1.009,61.331-0.116,108.652c-1.879,0.303-3.772,0.219-5.626-0.077 c-3.814-33.701,3.427-52.328-30.064-56.003c-11.544-0.579-13.593,1.093-20.165,8.297c-14.094,16.13-6.454,27.138-9.526,41.721 c2.777,0.494,9.326,6.174,8.309,7.833c-2.066,3.237-6.449,2.536-9.507,4.106c-1.545,1.024-2.858,2.349-4.409,3.353 c-1.822-1.41-3.791-2.594-5.915-3.469c0.103-2.246-0.502-4.757,0.927-6.707c1.043-1.461,1.828-4.068,0.174-5.323 c-1.68-0.213-3.373-0.11-5.04-0.103c0.08,6.91,1.692,1.237,2.021,11.045c-1.583-0.213-3.141-0.534-4.711-0.721 c-0.425,2.349-0.959,4.686-1.776,6.932c3.74,6.13-2.095,86.029-1.693,88.024c2.903,5.213,1.205,32.28,6.816,45.402 c-0.139,2.007-3.468,8.513-1.731,13.568c1.017-0.161,2.06-0.328,3.096-0.534c0.47,15.937,0.389,11.096,6.597,164.14 c-3.186,0.032-6.372,0.006-9.545-0.084c0,0,5.972,26.307-143.184-584.796c-0.837,0.142-1.66,0.277-2.472,0.419 c8.193,34.31,95.277,390.339,142.424,584.262c-8.451,0.245-16.902-0.122-25.346-0.064c-0.039-10.903,0.013-21.806-0.032-32.71 c0.631-0.348,1.281-0.689,1.95-1.017v-1.596c-0.425-0.013-1.281-0.045-1.706-0.058c1.422-7.389-0.605-15.035,0.978-22.405 c-0.599-0.521-1.178-1.036-1.744-1.538c-0.534,0.862-1.41,1.641-1.365,2.742c-0.387,21.968,0.863,18.227-1.287,21.897 c1.241,3.996-0.739,32.8-0.708,33.932c-0.598,0.36-1.178,0.721-1.751,1.088c0,1.448-0.013,2.89-0.006,4.351 c2.22,0.109,4.454,0.187,6.688,0.2c-0.116,3.463,3.257,6.211,6.584,6.037c4.537-1.03,7.001-6.648,18.582-5.059 c1.738,2.298,1.513,5.465,2.278,8.168c15.419,59.097,12.176,60.17,13.388,78.665c-0.2,99.758,10.052,0.074-7.151,140.236 c-1.822,0.045-3.636,0.09-5.4,0.483c-3.753,1.307-5.773-3.701-9.339-3.624c-3.817-0.045-7.627,0.032-11.437,0.006 c0.006-0.959,0.026-1.924-0.251-2.832c-0.74,1.088-1.107,2.407-2.021,3.379c-3.25,0.367-6.733-0.573-9.681,1.216 c-9.706,0.537-34.332-0.206-44.186-0.502c-0.599,0.933-1.146,1.899-1.616,2.909c0.94,0.586,1.905,1.165,2.877,1.757 c-0.382,25.53-0.644,30.586-0.644,30.586c-0.882,0.206-1.738,0.438-2.581,0.695c0.129-4.074,0.206-8.226-1.371-12.062 c-2.472-0.56-5.001-0.74-7.498-1.043c-4.358-1.285-6.423-3.279-7.749-1.493c0.566,3.102,3.018,18.5,5.703,20.075 c1.751-1.068,1.557-3.36,2.182-5.066c0.515,0.547,1.513,0.869,1.583,1.751c1.075,3.772-0.084,7.64,0.354,11.476 c-13.594,0.18-27.194,0.122-40.781,0.032c0,0,1.21-60.681,1.21-60.682c-1.519,0.142-3.019,0.412-4.48,0.798 c0.026,22.524-0.663,30.888-0.663,30.888c-0.005,0-33.443-0.077-33.443-0.077c0.022-32.967,0.333-31.795-0.772-32.761 c-1.313,0.315-2.51,0.953-3.733,1.48c-0.025,32.931-0.65,31.976-0.65,31.976c-0.02,30.576,0.619,31.757-1.693,32.472 c0,0-19.66-0.356-20.024-0.373c-6.565-4.013-10.949-2.983-26.55-3.109c-0.092-58.406,0.956,1.775,0.624-66.706 c-0.515-0.509-1.017-1.004-1.5-1.5c-1.004-0.019-1.995-0.032-2.967-0.032c0.005,1.546-0.663,32.838-0.663,32.838 c-36.304,0.044-34.638,0.355-35.323-0.843c-0.019-0.168,0.582-31.106,0.586-31.274c-0.695-0.489-1.345-1.017-2.066-1.397 c-1.081,0.071-2.092,0.438-3.109,0.721c-0.032,15.505,0.096,31.01-0.058,46.516c-22.286-39.341-18.206-29.95-17.172-48.524 c0.38-4.216,0.521-8.56,2.04-12.557c4.055-4.551,7.846-9.339,11.978-13.825c-9.269,0.4-71.726,4.771-78.717,5.213 c1.789-1.847,3.456-3.804,4.892-5.934c-4.428-1.159-9.056-0.148-13.555-0.618c-1.165-1.191-0.966-3.006-1.416-4.499 c-4.534-21.154-37.036-44.055-72.776-35.928c2.233,9.693,5.928,19.586,13.259,26.602c2.671,2.935,6.99,0.953,10.401,1.944 c11.764,3.2,16.584,9.284,17.217,11.843c-8.309,0.554-16.593,1.384-24.883,2.15c-1.917-23.851-41.16-57.972-80.532-50.365 c4.834,10.292,9.68,20.584,14.559,30.856c27.277-0.822,32.903,20.761,29.195,23.177c-0.081,0.009-13.362,0.682-17.777,0.747 c0.212-12.411-6.853-13.657-17.713-13.426c0.907,2.04,2.33,3.785,3.868,5.4c2.208,1.339,5.857,0.399,6.977,3.263 c1.307,1.873,1.538,4.435-0.302,6.05c-3.794-0.096-67.027,5.483-70.755,5.909c0.077,2.362-0.592,5.13,1.339,6.971 c6.7-0.298,26.741,3.568,31.384,3.244c1.976,1.622,2.452,4.126,2.69,6.546c-1.641,0.425-3.27,0.856-4.866,1.416 c2.42,3.147,5.664,5.645,7.807,9.004c0,0.002,28.513,108.414,28.513,108.414c-0.303,0.052-0.914,0.161-1.216,0.212 c2.64,2.272,8.392,26.233,8.425,27.548c0.094,1-0.334,53.169-1.596,60.901c-0.296,1.455-0.47,3.154-1.899,3.991 c-2.375,0.238-4.769,0.058-7.138-0.006c0.515-1.583,1.377-3.006,2.092-4.493c0.336-1.001,1.557-32.952-0.084-33.939 c0,0-60.868,0.444-60.869,0.444c-0.618-1.661-1.757-3.019-3.334-3.83c-0.914,0.193-1.622,0.824-2.375,1.326 c-2.015-1.429-3.546-3.553-5.915-4.428c-1.77-0.714-3.682-1.255-5.027-2.671c-1.461-1.577-4.029-2.124-4.647-4.377 c-0.631-1.847-2.768-2.401-3.971-3.778c-2.291-2.723-5.085-5.471-8.715-6.115c-3.947-1.326-23.463-17.714-26.563-20.455 c-2.536-2.35-11.079-5.931-19.953-16.072c-3.073-1.235-62.571-47.279-70.704-55.552c0.045-1.931,1.017-3.933,0.154-5.799 c-1.48-3.701-4.087-6.81-5.696-10.44c-3.238-4.267-10.079-6.488-14.63-2.935c-3.102,2.69-6.584,4.962-9.397,7.994 c-1.776,1.867-3.72,3.688-6.121,4.711c-9.317-0.901-21.343-1.358-21.343-1.358c-1-0.098-58.555-7.64-62.343-9.803 c-3.842-0.47-7.769,0.264-11.579-0.579c-0.298-0.022-28.25-3.567-28.539-3.643c-1.821-1.674-2.974-3.997-5.02-5.445 c-6.379-1.206-6.056,4.23-9.854,2.961c-4.776-1.191-9.79-1.751-14.675-0.953c-2.079,1.686-4.087,3.888-6.983,3.881 c-2.306,3.568-6.388,1.989-12.892,5.947c-5.533,3.507-11.762,0.869-16.895,9.558c-2.167,11.461,5.23,11.441,5.381,15.975 c1.661,2.237,1.182,19.585-2.233,25.314c0.631,0.721,1.371,1.397,1.828,2.279c-1.151,8.281-2.145,0.273-4.776,16.432 c-5.114,14.56,4.826,28.057,5.168,34.846c0.045,1.783,0.348,3.546,0.849,5.271c-97.543,0-85.389-1.116-88.815,1.416 c0,3.006,0.206,6.024,0.985,8.947c2.348,22.737,4.557,17.57,6.237,24.902c-0.682,2.311-3.07,3.147-4.718,4.628 c0.592,1.976,6.258,22.285,6.082,26.923c0.56,1.48,1.641,2.748,2.085,4.319c1.989,0.2,4.679-0.058,5.452,2.324 c2.395,6.08,6.505,22.408,9.552,28.075c-4.839,0.662-24.256-0.203-25.256-0.18c-1.912,0.052-3.546-1.101-5.271-1.751 c-2.841-4.807-9.894-16.636-16.786-14.514c-1.867,1.725-2.272,4.544-4.39,6.025c-2.169,1.48-3.682,3.669-5.226,5.748 c-0.502,1.442-0.817,2.941-1.204,4.435c-2.208-0.605-4.248-1.834-6.578-1.905c-3.984-0.483-7.891,0.824-11.888,0.367 c0.154-0.206,0.47-0.611,0.631-0.811c-3.097-0.875,1.057,4.219-29.897-59.305c0.296-0.251,0.875-0.74,1.165-0.985 c-0.772-0.251-1.551-0.476-2.33-0.682c0.521-0.36,1.043-0.714,1.57-1.043c-4.893-3.647-2.288-3.064-6.668-10.478 c0.431,0.135,1.294,0.399,1.725,0.534c-2.092-2.439-2.768-5.645-2.826-8.766c-0.727,0.174-1.455,0.348-2.175,0.528 c0.735-0.752,1.512-1.461,2.28-2.172c-0.274-0.823-0.308-0.926-0.583-1.749c-4.065-0.547-7.099,2.345-10.644,3.644 c1.39,1.126,3.109,1.628,4.795,2.15c-0.669,0.875-1.661,1.59-2.002,2.677c0.045,1.751,0.335,3.546,1.21,5.098 c0.824-0.251,1.641-0.496,2.465-0.727c3.681,8.986,25.422,58.256,29.054,66.694c-1.41,1.062-2.439,2.986-4.447,2.806 c-2.214,0.006-4.126,1.217-6.205,1.757c-2.703-3.199-6.623-4.917-9.571-7.846c-3.585-3.25-8.193-6.707-13.317-5.651 c-19.75,3.085-43.771-2.15-43.246,55.231c-1.152,0.154-2.304,0.251-3.437,0.483c-0.676,0.985-1.03,2.143-1.468,3.263 c0.856,0.547,1.693,1.139,2.523,1.751c0.335-0.695,0.669-1.377,0.998-2.047c0.888,0.328,1.77,0.669,2.658,1.023 c0.054,14.966,9.062,28.201,12.583,29.936c-0.508,0.444-1.017,0.908-1.519,1.377c4.454,3.969,2.666,3.954,13.021,4.267 c-0.006,1.358-0.006,2.723-0.019,4.106c-1.429-0.129-2.838-0.444-4.267-0.451c-1.197,0.676-2.291,1.513-3.392,2.349 c0.592,2.021,0.656,4.139,0.637,6.25c0.017-1.876-3.416,2.704-3.5,2.875c-42.181,85.438-55.705,182.098-66.956,234.437 c-6.709,31.209,15.215,61.306,46.986,64.412c682.916,66.768,1379.649,71.863,2093.846-0.991 c51.976-5.302,100.26-29.31,135.839-67.569c248.194-266.885,281.783-304.511,281.783-304.511c-3.759,0.309-7.485,0.856-11.244,0.888 C2564.562,1089.789,2563.738,1088.457,2562.599,1087.627z M1561.209,787.01c0.464-0.019,1.397-0.045,1.867-0.058 c0.039,2.806,0.444,5.973-1.822,8.104C1561.054,792.371,1561.144,789.687,1561.209,787.01z M1356.609,671.754 c-0.045-0.431-0.129-1.287-0.174-1.718c0.637-0.29,1.287-0.579,1.95-0.869c0.264,0.618,0.547,1.242,0.837,1.886 C1358.334,671.29,1357.466,671.529,1356.609,671.754z M1347.952,598.244c-2.671,0.148-5.368,1.615-8.007,0.631 c-2.208-1.68-0.238-5.271,1.937-6.121c1.358-1.017,1.898,1.126,2.697,1.879c1.448-0.161,2.883-0.451,4.325-0.785 C1349.233,595.257,1350.263,598.134,1347.952,598.244z M1359.46,352.31c-0.927,0.283-1.229-0.019-0.907-0.92 C1359.448,351.094,1359.75,351.396,1359.46,352.31z M1358.514,341.902c2.04,1.628,4.345,3.019,5.993,5.091 c0.27,1.448,0.348,2.929,0.547,4.396c-1.319,0.232-2.626,0.528-3.946,0.566c-1.197-0.631-2.311-1.403-3.321-2.266 C1357.999,347.09,1358.56,344.529,1358.514,341.902z M1317.148,365.357c0.026,1.847,0.122,3.688,0.277,5.535 c-1.88-1.12-2.517-3.154-2.935-5.162C1315.358,365.601,1316.247,365.479,1317.148,365.357z M1339.173,312.694 c1.41,0.039,2.813,0.328,3.965,1.229c1.332-0.257,2.665-0.553,4.029-0.772c0.019,3.83,0.148,7.659,0.502,11.482 c-1.931-0.026-3.842-0.032-5.754-0.039C1341.031,314.966,1338.488,318.939,1339.173,312.694z M1334.153,279.174 c2.478-0.399-0.084,2.935-0.682,0.766C1333.638,279.746,1333.979,279.367,1334.153,279.174z M1320.276,259.427 c0.147,2.035,0.349,18.081-0.006,20.744c-0.56,0.496-1.165,0.914-1.802,1.261c-0.393-6.533,0.116-13.085,0.187-19.625 C1318.448,260.643,1319.401,259.968,1320.276,259.427z M1186.406,611.22c-1.268,0.438-2.156-0.753-3.109-1.319 c-0.006-0.882,0.006-1.757,0.032-2.62c2.691,0.058,5.394,0.071,8.091,0.303C1190.339,609.456,1188.433,610.615,1186.406,611.22z M70.32,1111.21c-0.631,0.824-2.401-0.019-1.622-0.991C69.322,1109.356,71.099,1110.212,70.32,1111.21z M89.475,1143.34 c0.817-2.941,3.778-4.254,6.237-5.561c0.438,2.195,0.508,4.441,0.528,6.687C93.948,1144.318,91.689,1143.932,89.475,1143.34z M102.167,1151.868c-0.772-0.805-0.792-1.944-1.023-2.941c2.13,1.01,4.37,1.751,6.681,2.246 C106.016,1151.804,104.085,1152.139,102.167,1151.868z M107.529,1147.086c-2.233-1.101-4.512-2.323-6.185-4.197 c0.187-0.94,0.502-1.841,0.772-2.723c2.298,0.457,4.692,1.03,6.224,2.967C108.533,1144.473,107.767,1145.76,107.529,1147.086z M133.551,1104.973c0.792,0.129,1.583,0.354,2.401,0.405c1.184-0.779,2.163-1.828,3.295-2.671c0.289,2.066,0.032,4.158-1.088,5.96 c0.38,0.148,1.139,0.457,1.519,0.611c-1.892,1.12-4.074,0.341-6.127,0.656V1104.973z M135.031,1147.176 c1.3-1.229,2.703-2.337,4.177-3.328c0.039,0.509,0.122,1.532,0.161,2.04C137.889,1146.191,136.46,1146.687,135.031,1147.176z M138.346,1143.849c-0.348-1.319-0.695-2.626-0.94-3.945c0.869,0.547,1.596,1.32,1.976,2.298 C139.054,1142.748,138.713,1143.302,138.346,1143.849z M138.204,1133.344c0.817,0.412,0.798,0.843-0.064,1.307 C137.31,1134.226,137.335,1133.789,138.204,1133.344z M140.418,1131.819c-3.22-0.262-4.568,1.071-11.862-4.673 c-0.475-1.727,0.394-3.118,3.27-14.984c2.864-0.051,5.728-0.045,8.593-0.019C140.393,1118.702,140.393,1125.26,140.418,1131.819z M145.477,1108.835c0.553-0.611,1.989-0.013,1.538,0.863C146.494,1110.231,145.046,1109.614,145.477,1108.835z M144.531,1145.039 c0.785-0.148,1.545,0.579,1.686,1.332C145.683,1147.845,142.851,1145.818,144.531,1145.039z M145.729,1139.794 c-1.268,0.412-1.77-1.571-0.515-1.86C146.366,1137.547,147.016,1139.581,145.729,1139.794z M144.48,1135.159 c0.006-0.438,0.013-1.326,0.013-1.77c0.856-0.322,1.706-0.644,2.568-0.933c0,0.895,0.006,1.802,0.006,2.723 C146.205,1135.159,145.342,1135.153,144.48,1135.159z M145.085,1129.405c0.052-1.223,0.103-2.439,0.193-3.63 c1.493,0.65,2.008,1.989,1.95,3.559C146.694,1129.347,145.619,1129.386,145.085,1129.405z M147.022,1125.679 c-3.619-5.004-0.604,0.424-2.472-13.034c1.081-0.013,2.156-0.013,3.238,0.013c-0.084,1.442,0.109,3.044-0.901,4.248 C146.984,1119.828,147.698,1122.769,147.022,1125.679z M154.025,1125.511c-0.425,0.013-1.281,0.045-1.706,0.058 c1.674-4.255,1.101-8.869,0.676-13.297c0.586,0.373,1.152,0.779,1.693,1.236C155.068,1117.511,154.553,1121.54,154.025,1125.511z M172.053,1070.165c0.077,1.931,0.393,3.849,0.843,5.748c-3.36,1.377-6.951-0.232-10.401,0.611c-0.747-1.828-1.5-3.643-2.131-5.503 C164.181,1069.972,168.133,1070.107,172.053,1070.165z M159.94,1080.463c4.293-0.006,8.58-0.006,12.873,0 c0,6.224,0,12.442-0.006,18.666H159.94V1080.463z M159.946,1101.06c4.499-0.006,9.004-0.006,13.503,0 c0.006,2.999,0.006,5.999,0,9.011h-13.503C159.934,1107.058,159.934,1104.059,159.946,1101.06z M169.903,1144.286 c0.663-0.547,2.079-0.425,2.285,0.553C172.021,1146.191,169.298,1145.528,169.903,1144.286z M172.813,1141.609 c-2.362-0.006-4.718-0.006-7.08,0c-0.006-3.656-0.006-7.299,0.006-10.942c2.356-0.006,4.711-0.006,7.074,0V1141.609z M164.452,1129.38c-0.007-1.512-0.007-3.006-0.013-4.493c-1.287-0.026-2.575-0.032-3.855-0.026c0-4.286-0.006-8.573,0.006-12.86 c4.074-0.006,8.148-0.006,12.223,0c0.071,3.617-0.167,7.241,0.116,10.852c0.38,2.15,0.605,4.319,0.579,6.52 C170.489,1129.38,167.47,1129.373,164.452,1129.38z M213.355,1088.818c-2.073-0.264-4.711,0.76-6.366-0.792 c0.109-1.468,0.476-2.896,0.669-4.338c0.901,0.238,1.802,0.489,2.716,0.721c-0.953-0.837-2.433-1.171-2.916-2.414 c1.306-0.328,2.632-0.599,3.946-0.921c0.026,0.785,0.051,1.583,0.084,2.394c0.656,0.541,1.59,0.888,2.034,1.673 C213.581,1086.359,213.42,1087.575,213.355,1088.818z M212.474,1076.453c-1.68-0.071-3.353-0.122-5.02,0.09 c0.496-1.706,0.457-3.662,1.59-5.091c1.97-0.135,3.868,0.521,5.793,0.85C213.967,1073.634,213.265,1075.07,212.474,1076.453z M640.57,1010.197c-2.253-0.245-4.493-0.657-6.61-1.435C636.051,1006.49,638.8,1008.653,640.57,1010.197z M633.657,1040.049 c3.476-0.386,6.984-1.403,10.498-0.74c0.167,0.605,0.29,1.242,0.444,1.886c-3.688-0.29-7.267,0.824-10.948,0.695 C633.65,1041.433,633.657,1040.513,633.657,1040.049z M591.473,973.619c-1.352,0.766-2.819,0.444-4.19-0.045 c-0.071-1.139-0.142-2.272-0.135-3.398C588.789,971.045,590.237,972.223,591.473,973.619z M563.861,951.665 c-1.706-0.103-4.029,0.766-5.007-1.12C560.52,948.865,562.471,950.519,563.861,951.665z M550.164,941.798 c-0.399,1.12-0.843,2.233-1.3,3.347c2.502,3.288,9.786,8.5,10.787,9.127c2.594-0.135,5.593-2.323,7.807-0.084 c1.861,1.704,16.089,12.343,17.854,13.838c-0.09,1.397-0.598,2.755-0.547,4.184c0.547,1.738,1.622,3.257,2.678,4.744 c2.459,0.373,4.441-1.468,6.797-1.423c2.311,1.249,4.197,3.18,6.584,4.351c1.4,4.095-0.98,7.326,5.381,22.167 c-1.914-0.076-12.497-2.69-15.66-4.055c-0.006-1.146-0.058-2.279,0.122-3.392c0.579-0.463,1.178-0.895,1.796-1.307 c-0.006-0.92-0.006-1.828,0-2.723c-5.239-2.478-11.038-1.088-16.574-1.223c-6.706-0.184-26.151-23.722-29.768-31.178 c-1.461-2.549-2.53-5.387-4.66-7.473c0.058-0.508,0.116-1.004,0.18-1.487c-0.277,0.122-0.837,0.38-1.113,0.502 c-0.612-5.259-3.534-10.021-6.655-14.205C539.789,936.134,545.105,938.857,550.164,941.798z M509.692,859.689 c-3.913,1.384-8.148,1.526-12.017,3.051c-2.04,0.592-3.907,1.648-5.954,2.233C500.348,858.437,506.353,853.696,509.692,859.689z M510.362,863.641c-0.309,0.837-0.592,1.693-1.004,2.504c-1.5-0.367-2.922-0.998-4.415-1.332c-2.813,2.51-6.649,5.883-10.639,3.855 C499.527,863.626,503.903,863.255,510.362,863.641z M493.679,877.647c-0.824,0.438-2.008-0.753-1.551-1.558 C492.893,875.69,494.071,876.862,493.679,877.647z M477.607,871.307c-2.607-0.476-5.767,0-7.801-1.963 C472.503,869.305,475.348,869.717,477.607,871.307z M400.062,858.936c45.333,7.865,64.987,7.358,67.279,11.032 c-0.753-0.133-66.382-9.308-67.337-9.075C400.017,860.404,400.042,859.425,400.062,858.936z M475.058,890.854 c9.389,1.949,11.572,8.82,15.164,11.283c0.864,0.702,1.974,8.658,1.776,10.125c-0.457,0.708-1.088,0.997-1.912,0.875 c-0.951-0.111-33.696-9.338-40.363-11.791c-0.161-0.708-0.328-1.397-0.489-2.079c-3.642-0.929-55.323-15.583-58.526-17.488 C394.087,879.362,391.463,878.718,475.058,890.854z M370.409,855.177c2.407,0.006,4.879-0.187,7.215,0.528 c5.374,1.717,14.436,0.039,18.826,3.971c-13.213,0.381-17.939-3.744-26.054-3.887L370.409,855.177z M367.835,854.637 c0,0.303,0.006,0.907,0.006,1.21c-2.658-0.212-6.552,0.798-8.097-1.989C362.46,853.948,365.112,854.637,367.835,854.637z M354.737,848.838c0.837,0.663,1.332,1.622,1.86,2.549c-2.401-0.238-4.769-0.702-7.157-0.959 C350.334,848.22,352.806,848.612,354.737,848.838z M347.908,885.364c6.655,0.335,13.214,1.455,19.67,3.077 c-1.126,0.167-2.246,0.335-3.366,0.508c1.403,2.871,4.962,3.051,7.453,1.532c5.791,5.484,8.723,0.738,14.16,1.39 c3.665,0.42,54.315,15.565,56.923,16.497c2.298,0.695,4.673-0.322,7.003,0.064c0.25,0.011,39.235,11.289,39.474,11.36 c7.085,4.04-4.531,10.844,10.041,16.381c2.633,1.917,0.435,4.934,9.03,9.03c12.737,1.026,12.599-1.024,17.159-2.523 c1.049-0.444,2.24-0.644,3.147-1.371c0.85-1.249,1.261-2.735,1.944-4.074c7.783,8.789,3.164,8.992,9.571,18.588 c6.885,9.545-3.061-0.588,17.912,23.924c2.671,3.54,6.488,5.928,9.397,9.256c-22.09,0.199-80.689-0.068-81.896-0.27 c-2.421,0.261-68.415-0.314-69.423-0.315c0.187-12.441,0.515-24.877,0.631-37.318c-1.281-0.013-2.561-0.019-3.836-0.013 c-0.238,12.441-0.412,24.89-0.669,37.337c-1.001,0.007-49.491,0.181-54.58-0.039c0.013-0.438,0.032-1.319,0.039-1.757 c0.618-0.444,1.242-0.856,1.873-1.262c-1.088-1.326-1.68-2.935-1.422-4.654c0.425-4.563-2.137-8.599-4.132-12.409 c-2.019-61.622,0.162-61.929-6.127-61.809C346.151,899.562,348.229,892.392,347.908,885.364z M345.629,851.528 c-0.367,0.56-0.753,1.113-1.158,1.661c-2.652-0.341-5.349-0.579-7.897-1.435C339.154,849.565,342.656,851.386,345.629,851.528z M335.312,851.187c-0.431,0.56-2.027,0.554-1.886-0.361C333.838,850.234,335.441,850.247,335.312,851.187z M307.455,967.827 c-2.983-23.437-12.283-25.994-4.84-44.617c1.813-9.804-1.762-5.587,1.963-10.305c1.661-1.789,1.648-4.409,2.497-6.578 c2.551,4.955,8.7,56.524,10.034,61.474C313.891,967.84,310.673,967.827,307.455,967.827z M319.42,880.968 c0.496-0.006,1.48-0.032,1.976-0.045c0.444,6.774,1.261,5.479,4.016,9.745c-0.064,0.998-0.933,1.699-1.41,2.53 c-0.457-0.006-1.365-0.019-1.822-0.032C321.152,889.123,320.54,884.991,319.42,880.968z M341.6,965.851 c0.232,0.92,0.695,1.764,1.088,2.652c-0.843-0.032-1.68-0.052-2.51-0.052c-0.001-0.005-17.25-70.813-17.25-70.813 c10.515-4.005,6.977-8.129,10.202-14.681c2.909,0.451,5.806,1.017,8.715,1.519c0.035,0.456,0.856,16.713,0.895,22.81 c-0.869,0.013-1.725,0.039-2.581,0.077C340.222,920.593,342.376,961.315,341.6,965.851z M361.894,1010.828 c-0.657,1.654-0.811,3.45-1.21,5.181c-0.393-0.019-1.184-0.064-1.577-0.084c-3.321-5.825-7.428-11.154-11.573-16.381 c-1.467-0.219-2.935-0.47-4.37-0.843c0.283-0.193,0.85-0.586,1.126-0.779c-0.051-1.03-0.669-2.381,0.56-2.941 c2.459-0.296,4.95-0.084,7.427-0.135l0.309,2.24c1.886-0.412,3.411-1.48,3.939-3.398c5.092-1.218,23.376-1.062,25.095,0.167 c1.648-1.081,3.63-1.004,5.516-0.953c11.544,0.424,25.659-0.812,26.402,1.114c4.185,17.855,3.595,9.795,6.102,16.007 c-0.727,0.373-1.448,0.753-2.169,1.139c0.476,0.92,0.933,1.854,1.39,2.813c-3.572,0.955,0.002,1.211-50.886,1.867 c-0.212-1.641-0.071-3.385-0.76-4.898C366.123,1009,363.059,1008.91,361.894,1010.828z M363.194,1023.147 c5.992-6.135-6.172-1.672,53.177-4.39c-2.6,4.885-6.34,9.12-8.438,14.282c-5.594,13.149-10.841,6.296-38.354,8.696 C367.557,1029.727,364.074,1024.845,363.194,1023.147z M415.2,1045.848c-1.967,2.356,0.328,2.618-12.924,2.349 C405.481,1044.458,410.9,1045.893,415.2,1045.848z M369.978,1050.058c0.007-1.905-0.039-3.804-0.097-5.69 c1.001-0.021,28.088-0.509,30.322-0.071c-0.759,1.268-1.5,2.568-2.42,3.746C394.373,1049.802,374.893,1048.822,369.978,1050.058z M390.665,1066.303c4.383-7.395,12.304-3.098,21.755-4.962c0.991-0.212,1.963,0.219,2.929,0.438 c-0.212,1.332-0.187,2.684,0.026,4.036C411.865,1067.157,404.284,1066.527,390.665,1066.303z M411.988,1032.944 c2.536-4.95,4.982-10.015,8.219-14.546c1.725,2.729,4.139,4.885,6.288,7.273c1.841,1.963,1.686,4.808,2.291,7.267 C423.181,1033.059,417.594,1032.531,411.988,1032.944z M421.617,1002.937c-0.772-1.017-0.702-2.356-0.972-3.521 c-0.309-2.304-1.377-4.383-2.478-6.385c0.001,0,43.644,0.457,43.645,0.457c-0.165,3.061-0.03,20.928-0.019,21.929 C428.905,1014.408,432.534,1017.992,421.617,1002.937z M461.831,1028.773c-13.993,1.724-9.207-2.359-18.839-0.676 c-2.491-2.311-4.261-5.226-6.14-8.02c2.705-1.916,21.653-0.917,25.005-0.773C461.349,1022.452,461.767,1025.606,461.831,1028.773z M466.408,1005.132c-0.058-3.862-0.695-7.717-0.039-11.553c12.166-0.245,108.29,0.025,109.303,0.032 c3.675,0.959,6.475,4.048,10.356,4.602v17.243c-39.976-0.006-79.946,0.013-119.916-0.006c0.438-0.303,0.888-0.586,1.352-0.849 C465.213,1013.277,466.858,1009.696,466.408,1005.132z M517.995,1066.902c0.676-0.811,1.731-1.461,1.95-2.542 c-0.122-0.888-0.386-1.738-0.599-2.581c21.852,0.457,43.722-0.129,65.58,0.161c0.084,1.667,0.103,3.341,0.116,5.027 C557.161,1066.966,520.278,1066.43,517.995,1066.902z M564.138,1041.845l0.013-0.644c2.845,0.013,5.722,0.148,8.528-0.457 c3.791-0.425,7.614-0.097,11.424-0.18c-0.006,0.315-0.006,0.959-0.006,1.281H564.138z M585.905,1028.779 c-1.123,2.112-45.768,1.637-69.397,2.8c-5.194,0.548-22.925,1.365-28.037-0.341c-4.974,3.233-11.563,0.535-21.736,1.982 c-0.811-4.609-0.148-9.268-0.399-13.896c39.893-0.019,79.792,0,119.684-0.006C585.957,1022.465,586.221,1025.632,585.905,1028.779z M581.278,993.727c1.3-0.103,2.607-0.206,3.92-0.129c0.418,0.663,0.792,1.371,1.107,2.118 C584.502,995.394,582.829,994.66,581.278,993.727z M608.343,1004.765c2.266,1.358,3.817,4.01,3.566,6.72 c-0.382,2.874,0.554,2.37,5.67,16.734c-1.216,1.133-3.012,0.644-4.505,0.779c-7.074-0.27-14.115,0.502-21.176,0.669 c-0.547-0.869-1.39-1.622-1.506-2.665c0.451-7.067-0.142-14.147,0.154-21.208c0.058-1.616-0.303-3.186-0.657-4.731 C593.081,1000.22,605.204,1003.783,608.343,1004.765z M590.263,1043.068c0.361-0.798,0.283-1.944,1.133-2.394 c2.42-0.283,4.872-0.09,7.312-0.103c0.257,0.611,0.534,1.236,0.824,1.867C596.506,1043.248,593.365,1043.242,590.263,1043.068z M600.194,1056.005c-0.013,0.843-0.019,1.706-0.019,2.587c-0.438-0.006-1.326-0.013-1.763-0.013 c-0.322-0.869-0.644-1.725-0.946-2.562C598.366,1055.999,599.28,1055.992,600.194,1056.005z M600.799,1066.123 c-1.191,0-2.375,0.019-3.553,0.058c0.451-1.274,0.875-2.555,1.268-3.836c0.766,0.29,1.532,0.599,2.317,0.914 C600.818,1064.198,600.806,1065.157,600.799,1066.123z M617.508,1066.059c-1.287-0.006-2.562,0.006-3.83,0.045 c0.135-0.92,0.29-1.828,0.444-2.716c-1.133,0.824-2.137,1.828-3.34,2.555c-1.738,0.232-3.495,0.109-5.233,0.206 c0.412-1.191,0.251-2.742,1.261-3.598c3.579-0.296,7.183-0.045,10.781-0.097C617.56,1063.645,617.534,1064.849,617.508,1066.059z M617.109,1009.843c-2.105-0.837-3.637-2.497-4.319-4.647c2.259,0.18,4.499,0.573,6.726,1.049 C618.422,1007.237,617.527,1008.402,617.109,1009.843z M615.661,1002.602c-2.15,0.013-5.168,1.146-6.333-1.397 c-3.257-5.6-4.57-12.255-4.66-18.672c4.323,6.311,25.852,18.352,27.979,24.658c-3.682-1.062-7.286-2.568-11.154-2.774 C619.368,1004.314,617.881,1002.107,615.661,1002.602z M632.511,1009.29c-2.6,0.547-5.304,1.538-7.885,0.347 c0.013-0.541,0.032-1.622,0.039-2.163C627.227,1008.266,629.872,1008.762,632.511,1009.29z M622.779,1013.911 c0.856,1.847,2.304,3.656,1.867,5.838c-0.708,0.721-1.738,0.824-2.645,1.094C622.149,1018.513,622.477,1016.215,622.779,1013.911z M624.794,1020.759c0.985-0.785,1.828,0.978,0.991,1.622C624.787,1023.147,623.938,1021.365,624.794,1020.759z M627.922,1039.373 c1.294,0.135,2.568,0.463,3.868,0.676c-0.579,1.571-0.528,3.527-1.957,4.647c-1.371-1.519-2.401-3.546-4.634-3.855 C626.101,1040.339,626.969,1039.779,627.922,1039.373z M628.089,1063.561c-2.246-1.371-0.534-4.525,0.605-6.185 c-0.393,0.071-1.184,0.219-1.584,0.29c0.251-0.785,0.515-1.558,0.792-2.311c1.635-0.006,3.282-0.096,4.924,0.097 c1.158,0.843,0.792,2.427,0.998,3.682c-0.058,1.628,0.837,3.044,1.32,4.563C632.794,1063.877,630.426,1063.857,628.089,1063.561z M636.425,1060.703c-0.328-0.978-0.663-1.944-0.966-2.903c1.017,0.135,2.047,0.29,3.077,0.496 C637.841,1059.094,637.139,1059.905,636.425,1060.703z M637.474,1055.374c2.233-0.682,4.615-0.92,6.932-0.547 c1.126,0.541,0.895,1.854,0.798,2.89c-1.545,1.615-4.203,0.708-6.218,0.785C638.278,1057.556,637.937,1056.417,637.474,1055.374z M644.444,1065.035c-1.796-0.489-3.688-0.708-5.355-1.57c2.137-0.419,4.647-1.892,6.494,0.006 C645.3,1063.864,644.734,1064.649,644.444,1065.035z M667.654,1058.605c-3.192-1.165-6.79-1.802-9.095-4.531 c3.302,0.019,6.604,0.206,9.912-0.019C668.297,1055.554,668.787,1057.363,667.654,1058.605z M661.745,1058.47 c-3.939-0.071-7.891,0.251-11.811-0.013c-1.603-0.734-0.335-2.529-0.161-3.733c2.446,0.084,4.969-0.315,7.383,0.225 C658.675,1056.121,660.201,1057.305,661.745,1058.47z M667.551,1065.891c-1.313-0.354-2.575-0.85-3.753-1.506 c-0.599,0.36-1.191,0.734-1.77,1.12c-7.356-2.904-4.786-1.28-12.66-1.899c1.86-1.387-0.594-1.308,19.245-1.126 C668.278,1063.619,667.911,1064.746,667.551,1065.891z M676.208,1066.29c0.669-1.062,1.326-2.13,1.982-3.192 c0.805-0.026,1.615-0.032,2.439-0.026c0,0.869,0.013,1.757,0.039,2.652C679.181,1065.949,677.688,1066.097,676.208,1066.29z M682.477,1057.73c-0.721,1.461-2.42,0.605-3.643,0.495c0.489-1.564,0.193-3.508,1.352-4.763 C682.844,1052.664,682.895,1055.979,682.477,1057.73z M698.716,1065.705c-0.026-0.483-0.071-1.435-0.09-1.918 c0.927-0.064,1.867-0.116,2.819-0.155c-0.225-1.229-0.373-2.497-1.055-3.546c-2.266-1.609-5.123-1.493-7.692-2.227 c0.765-7.079,3.12-3.755-1.924-12.957c18.219-1.503,14.588,0.977,23.622-0.534c-0.419,2.061-9.69,16.226-10.897,19.728 C702.796,1066.162,700.428,1065.859,698.716,1065.705z M717.085,1056.256c0.496,2.529,0.116,5.11-0.47,7.595 c-1.197-0.193-2.369-0.412-3.527-0.663c-1.397,1.802-3.469,2.645-5.709,2.71c3.186-5.806,6.572-11.508,9.725-17.333 C718.224,1051.042,716.506,1053.694,717.085,1056.256z M717.639,1037.558c0.251,2.047-1.635,3.521-3.077,4.66 c-3.379-0.315-6.726,0.431-10.105,0.29c-8.712,0.157-19.766-0.721-19.766-0.721c-0.541-0.592-1.062-1.172-1.583-1.738 c-4.711,2.253-10.189,0.895-15.19,0.734c-5.773,0.798-11.637,0.328-17.449,0.373c-2.264-0.076-0.851-6.528-0.006-7.531 c1.596-0.624,4.106-0.257,4.081-2.645c8.689-1.094,17.455-0.367,26.183-0.335c1.236-0.141,2.195,0.631,3.128,1.326 c3.191-1.96-2.625-1.038,30.296-0.74c1.281,0.019,2.6,0.019,3.855,0.418C717.986,1033.626,717.336,1035.569,717.639,1037.558z M724.101,1027.569c-0.966-0.01-75.306-0.56-75.306-0.56c18.411-11.186-11.159-6.739,67.891-7.691 c3.463-0.084,6.971,0.302,10.395-0.412C726.441,1025.354,727.514,1021.156,724.101,1027.569z M727.229,1016.363 c-18.708,1.716-65.689,0.188-68.084,0.328c1.216-2.098,3.019-4.242,2.806-6.803c-1.004-1.114-2.414-1.686-3.669-2.427 c0.006-0.154,0.019-0.457,0.026-0.611c2.671-1.397,3.849-4.396,3.855-7.273c0.94-0.856,2.15-1.313,3.167-2.06 c0.644-0.862,0.56-2.06,0.895-3.038c5.665-1.052,33.387-0.912,34.389-0.908c18.803,1.149,27.616-2.206,27.007,1.969 C727.628,1002.48,727.795,1009.438,727.229,1016.363z M966.218,897.155c-1.963-3.688-4.029-7.318-5.934-11.032 c2.536,0.283,5.645-0.85,7.84,0.637C967.396,890.204,966.43,893.622,966.218,897.155z M977.237,909.751 c-1.384-0.039-2.761-0.058-4.132-0.077c-1.274-2.143-2.594-4.313-3.07-6.79c2.407-0.09,4.821-0.077,7.241-0.064 C977.591,905.124,977.823,907.453,977.237,909.751z M970.33,886.728c0.509-0.277,1.03-0.541,1.564-0.792 c1.171,4.351,2.909,8.548,3.714,12.995c-1.828,0.019-3.643,0.019-5.452,0.006C971.541,885.828,972.307,890.808,970.33,886.728z M982.019,897.818c0.611-0.862,2.388-0.006,1.622,0.991C982.997,899.64,981.227,898.797,982.019,897.818z M984.336,907.132 c-0.927,0.116-1.538-1.448-1.094-2.143C984.143,904.834,984.78,906.411,984.336,907.132z M981.768,893.68 c0.193-1.249-0.257-2.838,0.933-3.682c1.139-0.052,2.298,0.109,3.411,0.418c0.283,1.242,0.277,2.536,0.38,3.817 C984.928,893.924,983.338,893.783,981.768,893.68z M986.364,886.085c-1.461-0.006-2.903-0.006-4.345,0 c-0.174-0.792-0.341-1.577-0.496-2.349c-2.993-0.103-5.947-1.191-8.927-0.515c0.322-0.502,0.65-0.985,0.998-1.461 c-5.104,0.965-10.343,0.245-15.499,0.463c-6.139-11.201-6.611-11.531-6.488-13.484c-0.094-17.24-0.184-16.759,0.856-17.307 c6.078-0.307,34.081,0.377,34.538,0.502C987.001,851.934,986.364,886.084,986.364,886.085z M1019.678,923.178 c0.142,1.924,0.425,3.888,0.09,5.825c-1.834,1.345-4.48,1.654-6.707,1.384c-2.192-2.931-0.779,0.333-1.577-11.425 c2.987,0,5.979-0.309,8.972-0.077c0.006,0.438,0.026,1.313,0.032,1.751c-1.467,0.064-2.826,0.457-3.624,1.764 C1017.792,922.65,1018.726,922.907,1019.678,923.178z M1020.92,915.113c0.09,1.59-1.982,1.094-2.974,1.255 c-2.967-0.109-6.43,0.451-8.947-1.352c-3.019-4.782-9.333-4.454-14.276-4.177c1.841-0.496,3.701-0.914,5.574-1.319 c-1.545-1.126-3.295-1.989-4.538-3.463c1.094-0.817,2.323-1.422,3.521-2.072c-0.302-1.03-0.598-2.053-0.85-3.07 c-2.098-0.18-4.892,0.74-5.992-1.628c1.538-0.264,3.135-0.451,4.544-1.204c-1.307-2.137-3.025-3.92-5.027-5.394 c1.866-0.991,3.74-2.336,5.966-2.118c6.365,0.122,12.75-0.18,19.11,0.148C1022.937,895.333,1020.726,905.259,1020.92,915.113z M1028.663,910.62c-1.236,0.129-2.459,0.277-3.669,0.444c-0.717-9.77,2.058-8.587-2.877-20.384 c3.836-0.148,7.679-0.142,11.521-0.013c-1.59,4.164-4.299,8.142-4.145,12.77C1029.597,905.857,1029.417,908.29,1028.663,910.62z M1039.058,912.712c-1.88-0.277-3.746-0.586-5.6-0.933c-0.637-7.054-0.019-15.171,5.638-20.172 C1039.168,898.636,1039.219,905.677,1039.058,912.712z M1043.847,912.686c-0.212-2.221-0.219-4.441-0.206-6.655 c2.027-0.006,4.061-0.006,6.108,0.084C1048.326,908.728,1046.453,911.161,1043.847,912.686z M1059.243,913.941 c2.156-1.274,4.422-2.401,6.88-2.993c0.006,1.01,0.032,2.034,0.064,3.064C1063.864,913.909,1061.547,913.967,1059.243,913.941z M1072.27,911.985c1.146-2.356,3.431-0.991,5.136-0.187C1075.694,911.959,1073.975,912.023,1072.27,911.985z M1077.766,898.925 c-2.465-0.721-5.168-0.309-7.46-1.564c-2.053-1.01-4.164-0.09-5.767,1.255c-3.373,1.345-6.861,2.427-10.111,4.068 c-3.585,0.348-7.202,0.052-10.794,0.116c0.367-4.724-0.509-9.507,0.779-14.147c2.877-0.753,5.889-0.798,8.837-1.146 c5.386,0.948,16.526,0.578,23.724-0.084C1078.134,888.263,1077.7,889.316,1077.766,898.925z M1077.683,883.51 c-34.596,0-27.219-0.24-33.36,0.76c0.174-9.114-0.663-18.325,0.882-27.348c24.635,1.221,34.068-1.591,33.205,2.13 C1078.275,867.201,1078.854,875.413,1077.683,883.51z M1082.381,892.077c0.783-1.662,19.069-0.742,21.111,0.457 c8.378,5.054,7.099,6.18,7.099,24.445c-16.308-0.162-13.389,1.691-15.319-6.938c-0.489-1.545-2.394-1.319-3.63-1.763 c-2.253-3.386-5.658-5.922-9.371-7.485C1082.323,897.883,1082.092,894.967,1082.381,892.077z M1098.279,938.953 c0.714-2.626,1.564-5.207,2.349-7.807c-0.277-3.469-0.959-6.9-1.133-10.375c3.34,0.978,6.823,0.566,10.253,0.817 C1112.334,923.096,1110.026,940.859,1098.279,938.953z M1108.642,956.859c-1.146,1.905-1.899,4.036-3.237,5.831 c-7.003-0.109-14.018,0.142-21.008-0.103c-1.068-1.113-0.991-2.845-1.5-4.216c4.087-3.641,3.176-3.277,7.563-3.521 c0.766-0.817,1.538-1.622,2.317-2.427c2.169-0.032,4.364,0.032,6.501-0.431c3.617-0.914,7.292,1.358,10.852-0.283 C1111.197,953.654,1109.485,955.218,1108.642,956.859z M1112.986,949.805c-6.102-0.096-12.216,0.193-18.299-0.122 c-2.388-2.085,0.837-4.924,1.873-6.945c16.245,0.92,17.795-10.888,17.906-23.827c1.268-0.013,2.549-0.013,3.843,0 C1118.17,947.252,1119.499,934.307,1112.986,949.805z M1118.283,917.076c-1.261-0.232-2.916,0.309-3.727-0.933 c-0.617-14.806,2.089-17.764-4.113-23.461c-2.285-1.751-5.008-2.813-7.286-4.557c7.196-0.264,14.405-0.019,21.613-0.135 c1.641,0.103,3.791-0.502,4.737,1.3C1121.521,895.922,1118.473,898.112,1118.283,917.076z M1122.383,931.596 c-0.341-3.07-0.206-6.159-0.187-9.236c0.496-0.515,0.998-1.023,1.513-1.519c1.506-0.006,3.019,0.006,4.551,0.071 C1126.631,924.645,1124.784,928.301,1122.383,931.596z M1131.053,902.993c-0.863,0.219-1.712,0.463-2.536,0.734 c0.148,1.377,1.725,1.738,2.665,2.517c0.007,3.36,0.007,6.719,0.007,10.092c-3.012,0-6.018,0-9.011-0.006 c-0.19-16.02,2.591-18.051,7.917-22.926C1132.141,896.138,1130.931,899.82,1131.053,902.993z M1129.882,869.884 c0.85,0.283,1.712,0.579,2.587,0.882c0.013,3.579-0.013,7.164,0.026,10.749C1126.251,886.189,1128.271,879.648,1129.882,869.884z M1178.682,885.57c0.116,0.991-0.759,1.674-1.204,2.465c-3.849-0.039-7.691-0.013-11.534-0.026 c0.134-15.873-0.802-17.85,1.963-17.365c3.147-0.006,6.307-0.148,9.448,0.097C1179.458,872.662,1178.215,875.227,1178.682,885.57z M1177.897,902.639c-3.939,0.283-7.988,0.502-11.811-0.644c-0.798-3.353-0.084-6.932,0.077-10.337 c3.914,0.476,7.833-0.238,11.753,0.032C1178.496,895.315,1178.599,899.016,1177.897,902.639z M1176.707,839.138 c1.622,1.036,0.264,2.813-0.155,4.145c1.946,3.508,0.562,22.48,1.693,25.417c-3.83-0.09-7.666,0.213-11.47-0.122 c-2.15-1.461,0.277-4.061,1.809-4.975c-0.689-0.315-1.365-0.618-2.028-0.908c0.444-0.541,0.914-1.062,1.39-1.577 C1163.698,854.522,1168.074,839.138,1176.707,839.138z M1137.625,887.372h-1.287c-0.025-15.233-0.248-15.409,0.727-16.921 c2.13,1.101,0.766,3.592,0.676,5.419C1137.444,879.693,1137.702,883.536,1137.625,887.372z M1136.486,891.491 c2.047,1.899,0.929,7.227,0.199,11.688C1134.951,900.703,1135.939,901.638,1136.486,891.491z M1147.923,916.973 c-3.798-0.084-7.601,0.2-11.38-0.109c-0.18-0.187-0.547-0.554-0.734-0.734c-0.316-3.36-0.045-6.733-0.109-10.092 c4.068-0.006,8.142-0.006,12.223,0.006V916.973z M1147.917,903.489c-2.768,0.071-5.51-0.238-8.251-0.47 c-0.167-3.098-0.633-10.965,0.74-11.682c2.491-0.264,5.007-0.077,7.518-0.09C1147.917,895.321,1147.923,899.408,1147.917,903.489z M1147.91,888.048c-2.826,0.116-5.613-0.213-8.354-0.805c0.295-16.619,0.519-4.427,0.656-16.606 c2.787-0.013,5.658-0.257,8.361,0.657C1148.251,876.862,1149.281,882.583,1147.91,888.048z M1147.723,868.604 c-3.585,0.277-7.183,0.026-10.762,0.096c0,0,0.011-24.537-0.006-27.696c0.084-1.088-0.283-2.471,0.869-3.109 c3.244-0.393,6.527,0.257,9.693,0.953C1150.18,844.188,1148.906,867.805,1147.723,868.604z M1161.42,916.979 c-3.212,0.27-6.43-0.071-9.635-0.026c0.064-3.36-0.18-6.726,0.103-10.073c0.588-1.108,0.976-0.862,9.552-0.837 C1161.433,909.687,1161.452,913.33,1161.42,916.979z M1161.439,904.1c-3.032,0.006-6.063,0.013-9.082-0.006 c-0.176-1.144-0.607-11.413,0.528-12.654c2.735,0.689,5.574,0.245,8.361,0.56C1162.859,892.739,1161.539,892.908,1161.439,904.1z M1161.974,882.706c-3.148,6.961-5.123,4.973-9.545,5.316c-0.006-5.793-0.006-11.592,0-17.378c3.212-0.013,6.43-0.013,9.655,0 C1161.986,874.66,1162.27,878.689,1161.974,882.706z M1162.276,854.16c-1.525,4.737,0.052,9.699-0.161,14.54 c-3.231,0.006-6.462,0.006-9.687,0c-0.036-42.802-0.295-18.648-0.753-30.869c5.741,0.019,11.483-0.161,17.224,0.109 c-1.455,2.06-3.514,3.682-4.493,6.057C1162.727,847.125,1163.048,850.794,1162.276,854.16z M1177.968,908.168 c0.064,1.545,0.818,2.851,1.944,3.901c-0.586,1.95-0.701,4.827-3.18,5.271c-3.804-0.367-7.627-0.29-11.431-0.386 c0.064-3.36-0.18-6.726,0.103-10.073c0.828-1.543,9.326-0.705,10.929-0.496c5.22-0.489,10.498-0.521,15.737-0.129 C1190.341,908.272,1189.745,906.405,1177.968,908.168z M1191.948,902.691c-1.565,0.094-10.984,0.687-11.74-0.714 c-0.212-3.295-0.212-6.61,0-9.899c0.759-1.445,10.282-0.835,11.283-0.74C1193.057,892.191,1192.178,900.971,1191.948,902.691z M1192.881,887.172c-0.608,1.077-0.9,0.873-11.257,0.824c-0.509-0.515-1.01-1.01-1.493-1.5c-0.167-4.235-0.071-8.477,0.753-12.641 c19.719-0.667,8.928-1.098,16.13,0.708C1190.633,881.517,1194.028,877.765,1192.881,887.172z M1209.358,837.864 c1.107-0.058,2.253-0.109,3.392-0.006c0.418,0.644,0.805,1.332,1.159,2.053C1212.177,839.782,1210.594,839.048,1209.358,837.864z M1269.577,331.984c11.509,5.464,5.02-10.258,7.254,87.914c0,0,0.603-8.84,0.451,183.044c-2.51,0.039-5.027,0.206-7.511-0.116 c-3.172-2.969-0.568-15.821-1.172-23.003c0.85-3.096-0.746-6.185,0.148-9.249c0.734-1.815-1.809-1.783-2.941-1.982 c-0.09,1.5-0.161,2.999-0.322,4.505C1261.479,569.947,1269.522,333.235,1269.577,331.984z M1265.091,602.884 c-14.961-0.211-10.027,0.544-14.076-1.364c-1.3-0.695-2.748-1.094-3.888-2.021c-1.001-10.467,6.049-74.415,18.929-227.783 c0.07,1.407-3.385,188.867-5.767,200.583c-0.779,0.161-1.551,0.328-2.304,0.489v1.744c1.01,0.006,2.04,0.019,3.083,0.045 c0.206,2.343,0.978,4.641,0.74,7.022c-0.907,5.246,0.174,10.768,2.607,15.492C1265.38,598.862,1265,600.947,1265.091,602.884z M1249.328,602.769c-0.631,0.586-1.854-0.348-1.377-1.075C1248.549,601.089,1249.772,602.022,1249.328,602.769z M1262.593,587.489 c0.734-0.444,1.557-0.702,2.388-0.978c0.116,2.787,0.154,5.587-0.052,8.38C1263.005,592.889,1262.999,590.05,1262.593,587.489z M1249.07,316.131c-1.011-0.856-1.873-1.866-2.356-3.096C1248.523,313.08,1249.141,314.496,1249.07,316.131z M1233.668,284.271 c0.335,1.377,0.547,2.787,0.798,4.197c0.747,0.161,1.506,0.315,2.285,0.476c0.013,2.8-0.058,5.6-0.2,8.399 c-2.7-0.647-12.709-4.674-14.636-7.537C1225.591,287.457,1229.929,286.505,1233.668,284.271z M1218.292,293.945 c-2.697,0.502-5.851,0.026-7.466-2.414C1212.2,290.104,1216.144,292.61,1218.292,293.945z M1214.681,422.885 c2.261-6.126-2.04-76.188-2.902-80.113c-0.089-9.855-4.884-19.877-3.45-43.587c-0.477-2.337-1.191-4.988,0.959-6.745 c1.326,1.101,2.465,2.748,4.338,2.903c2.349,0.425,4.833-0.444,7.125,0.438c4.782,1.854,9.339,4.254,14.096,6.185 c-0.444,1.789-0.721,3.611-0.792,5.452c3.173,0.811,6.475,0.92,9.719,1.371c1.596-0.058,2.439,1.545,3.553,2.452 c-0.837,0.901-1.667,1.802-2.484,2.703c2.265,3.907,7.363,3.315,11.212,3.939v1.545c-1.905,0.109-3.244,1.384-4.667,2.452 c-1.448-0.077-2.864-0.373-4.255-0.695c0.258,2.317-1.77,3.746-3.546,4.769c-1.616,0.27-3.257,0.109-4.866,0.232 c-2.24,0.103-4.312,1.036-6.481,1.435c-0.02,0.792-0.02,1.583-0.007,2.388c4.551,0.457,8.779-1.912,13.343-1.326 c0.142,3.373,2.047,6.128,3.302,9.133c1.686,2.71,5.992,2.073,7.634-0.348c1.281-2.317-0.006-4.853,0.29-7.305 c0.245-1.191-0.419-2.214-0.92-3.218c1.049-0.566,2.195-0.907,3.392-1.094c0.991,3.192-1.371,7.048,1.21,9.693 c0.888-2.034,0.721-4.274,0.817-6.43c1.944,0.656,3.971,1.242,5.748,2.336c0.636,5.478-19.87,233.875-19.959,234.883 c-1.545-0.142-3.057-0.393-4.531-0.785c-0.506-7.571,0.245-33.856,0.264-48.266h-2.221c-0.094,11.87,0.549,21.241-1.493,46.702 c-0.496,0.65-1.043,1.255-1.577,1.866c0.792,0.56,1.642,1.101,2.292,1.867c0.393,2.349-0.077,4.917,1.217,7.054 c2.259,3.965,0.965,8.683,1.886,12.957c0.85,3.746-1.751,7.337-0.92,11.103c0.225,1.023,1.596,2.002,0.772,3.064 c-7.048,1.461-14.295,0.425-21.427,0.708c-0.001-1-0.395-28.174,0.843-32.928c1.139,1.783,0.946,3.849,0.843,5.857 c2.076,2.105,0.786-4.246,0.766-7.17c-0.631-0.315-1.236-0.624-1.828-0.927c0.972-2.349-0.045-4.744-0.148-7.125 c-1.03-10.227-0.322-20.532-0.528-30.798h-1.287c-0.031,45.674,0.361,26.135-1.609,44.591 C1211.232,400.529,1212.287,441.085,1214.681,422.885z M1227.039,788.239c-0.322-2.819,1.545-5.715,0.154-8.406 c-4.013-8.627,1.721-57.758,3.45-63.424c0.302,2.014,0.258,4.125,1.12,6.024c1.519,3.579,0.94,7.601,2.336,11.206 c0.175,5.359-4.197,45.184-6.05,70.15C1227.309,798.64,1227.309,793.42,1227.039,788.239z M1227.914,835.237 c-0.399,0-1.197-0.006-1.596-0.013c0.296-3.817,0.721-7.614,1.036-11.425l0.187,0.013 C1227.515,827.623,1227.747,831.427,1227.914,835.237z M1243.374,611.921c0.489,0.006,1.467,0.013,1.956,0.013 c0.165,3.784-8.896,99.777-9.268,102.358C1231.326,691.563,1230.664,718.068,1243.374,611.921z M1243.085,575.569 c-0.888-0.142-1.043-0.592-0.45-1.365C1243.49,574.326,1243.638,574.783,1243.085,575.569z M1229.819,611.22 c-0.534,2.446-0.985,5.136-2.935,6.913c-5.363,3.584-5.608-4.217-6.301-6.443C1223.634,611.277,1226.736,611.451,1229.819,611.22z M1211.398,608.098c2.002,0.064,4.023,0.206,6.012,0.573c0.335,9.989,1.158,19.978,1.21,29.974 C1215.865,628.559,1213.722,618.293,1211.398,608.098z M1218.781,576.669c1.223,3.418,0.296,7.132,0.502,10.684l-0.464-0.026 C1218.865,583.775,1218.44,580.216,1218.781,576.669z M1218.762,611.709c1.223,3.083,1.577,7.376,5.265,8.554 c3.474,0.968,5.876-4.424,6.661-8.084c3.573-1.757,7.627-0.611,11.399-0.29c-0.706,5.823-9.78,79.171-10.414,82.662 c-1.153-3.32-0.654-1.79-9.127-38.174C1218.553,638.223,1221.433,650.233,1218.762,611.709z M1222.012,678.48 c8.875,34.931,8.651,28.783,3.27,67.427C1224.654,741.706,1222.16,682.577,1222.012,678.48z M1224.632,839.743 c-3.257-0.006-6.507,0.006-9.751-0.019c0.007-0.296,0.02-0.895,0.026-1.191c3.283,0.116,6.494-0.624,9.764-0.837 C1224.657,838.211,1224.638,839.234,1224.632,839.743z M1215.453,835.218c8.364-68.109,6.811-58.427,9.429-62.915 c-0.431,0.077-1.3,0.232-1.732,0.309c2.159-14.4,1.129-9.891,2.246,7.936c0.077,2.523,0.515,5.143-0.341,7.595 c-0.167,0.92-0.862,2.002-0.167,2.883c4.015,4.932,0.232,43.171,0.155,44.186C1221.845,835.244,1218.646,835.25,1215.453,835.218z M1225.925,839.762c0.013-0.483,0.052-1.455,0.071-1.944c0.695,0.013,1.403,0.039,2.131,0.071c0.013,0.444,0.026,1.332,0.039,1.776 C1227.399,839.685,1226.652,839.724,1225.925,839.762z M1237.389,839.736c-2.665,0.006-5.323,0-7.975,0.006 c0-0.509,0-1.532,0.006-2.04c2.6,0.669,5.278,0.862,7.968,0.785V839.736z M1239.3,839.827c0.026-0.406,0.084-1.204,0.109-1.603 c1.223,0.199,2.452,0.515,3.476,1.294C1241.669,839.64,1240.484,839.736,1239.3,839.827z M1243.098,835.237 c-4.641-0.013-9.281,0.019-13.915-0.026c-0.635-30.402-3.117,2.854,5.741-93.347c0.116-1.474,0.135-2.948,0.077-4.415 c0,0,9.778,41.575,10.086,43.729c0.084,9.03-0.019,18.067,0.039,27.097c-2.774,0.65-5.542,1.307-8.29,2.053 C1238.965,818.619,1240.581,827.05,1243.098,835.237z M1251.954,799.464c0.386,2.381,0.657,4.795,0.631,7.228 C1249.843,805.289,1250.351,801.549,1251.954,799.464z M1275.897,821.946c-1.487,0.045-2.967,0.096-4.428,0.154 c-0.489-6.269-0.785-12.551-1.332-18.814c-2.768-0.084-5.548-0.174-8.264,0.405c0,0-0.976,4.577,9.133-84.452 c1.821,0.483,4.087,0.309,5.554,1.622C1276.56,720.863,1275.897,821.944,1275.897,821.946z M1276.541,714.06 c-1.223,1.506-3.411,0.837-5.085,1.21c1.525-14.675,3.624-29.298,4.756-44.012l0.225-0.013 C1276.804,682.458,1276.692,709.336,1276.541,714.06z M1259.658,804.259c-0.296,0.122-0.882,0.367-1.172,0.489 c-1.693-3.81-1.352-8.168-3.141-11.927c-1.287-2.922-4.86-3.926-6.192-6.732c-0.566-6.481,0.18-13.047-0.328-19.534 c-1.777-3.437-2.311-7.292-3.212-11c-10.864-46.55-10.386-15.233,1.274-143.428c7.095,1.628,20.994-2.559,23.776,1.892 c1.995,3.122,5.613,5.162,6.552,8.934c0.656,4.042-2.433,7.112-4.306,10.337c0.258,0.65,0.534,1.313,0.824,1.983 c1.101-1.32,1.983-2.806,2.832-4.299C1280.517,640.052,1260.565,799.734,1259.658,804.259z M1291.866,169.807 c0.747-0.586,1.185-0.431,1.313,0.463C1292.4,170.85,1291.963,170.695,1291.866,169.807z M1287.251,169.884 c0.644-0.534,1.796-0.528,2.478,0.013C1289.671,170.856,1287.251,170.869,1287.251,169.884z M1286.324,167.876v-1.493 c1.422,0.109,3.031-0.051,4.145,1.068C1289.079,167.663,1287.695,167.792,1286.324,167.876z M1291.763,166.634 c0.618-0.927,2.311,0.064,1.558,1.03C1292.664,168.565,1290.997,167.58,1291.763,166.634z M1359.371,502.722 c5.27,5.539,4.042,2.604,4.016,8.515C1357.321,506.216,1356.41,505.153,1359.371,502.722z M1350.276,530.99 c2.317-0.959,3.405-3.405,5.278-4.924c3.933-0.908,8.001-1.191,12.036-1.242c-1.139,2.575-1.442,5.793-3.611,7.743 c-8.728,2.054-15.54,0.711-28.616,0.785c-0.302-1.236-0.624-2.465-0.907-3.694C1338.771,527.673,1347.942,532.01,1350.276,530.99z M1349.491,539.042c-2.528,4.762-23.911,28.102-27.638,31.956c-0.103-10.884,0.039-21.768-0.09-32.652 C1322.121,538.327,1348.491,538.92,1349.491,539.042z M1325.676,696.72c13.626-1.879,27.207-4.094,40.832-6.012 c1.435-2.523,2.298-5.394,4.1-7.691c55.024,0,51.905,0.554,52.566,2.156c1.282-0.019,17.923,1.561,19.882,2.343 c-3.328,2.008-7.415,1.654-10.916,3.244c-1.712,3.604-2.536,7.524-4.087,11.187c1.934,1.696,2.835,0.672,4.763,8.097 c2.742,1.088,5.568,1.963,8.251,3.231c-0.508,1.152-1.081,2.285-1.815,3.308c-1.191,0.772-2.665,0.766-3.978,1.133 c-5.151,3.085,10.371,2.635-57.599,2.053c-17.146-0.013-34.274-0.541-51.414-0.399 C1326.165,711.814,1325.747,704.27,1325.676,696.72z M1387.652,952.811c-7.145-1.326-14.566,0.618-21.633-1.12 c1.133-3.199,0.83-6.572-0.373-9.68c0.283-2.774,1.223-5.471,1.146-8.284c-0.122-1.229,0.566-2.246,1.178-3.231 c-1.628-2.356-0.553-5.587-2.594-7.679c-1.635-2.143-0.026-5.065-1.828-7.177c2.259-1.268,1.918-4.235,3.682-5.934 c1.223-0.978,0.483-2.388,0.18-3.604c1.828-1.796,1.126-4.261,0.534-6.417c-0.721-2.034,0.129-4.145-0.032-6.218 c-3.148-2.742-7.537-2.89-11.483-2.935c0-1.423-0.058-2.839,0.135-4.235c0.686-1.505,11.679-0.638,12.68-0.528 c2.169-0.399,4.357-0.232,6.533,0.122c4.152-0.895,8.284,0.689,12.493,0.219C1388.286,887.125,1388.626,950.237,1387.652,952.811z M1473.886,909.558c-1.635,4.132,0.74,8.76-1.203,12.86c-1.712,1.493-3.637,2.716-5.349,4.203c-0.489-0.534-0.946-1.036-1.396-1.532 c0.959-0.695,1.905-1.429,2.832-2.188c-2.407-2.536-4.563-5.825-8.122-6.758c-2.62,0.245-5.568-0.354-7.801,1.313 c-6.411,4.097-3.679,5.252-5.909,9.532c-0.849-1.332-1.133-3.128-2.523-4.016c-3.924-1.716-16.554-0.471-18.601,2.221 c-2.697,9.017-6.475,17.687-8.599,26.878c-1.094-1.512-3.07-2.748-2.832-4.827c0.049-13.977-0.198-35.364,0.534-38.078 c0.826-15.709-1.462-21.12,2.079-20.5c3.604-0.079,53.55,0.519,57.252,1.377C1474.27,908.274,1474.383,908.144,1473.886,909.558z M1554.219,817.171c-3.514-0.135-6.983,0.232-10.427,0.811c0.083-4.132-0.431-8.322,0.392-12.403 c-0.586-0.29-1.146-0.573-1.693-0.837c-0.006-0.451-0.013-1.358-0.019-1.809c7.186-1.629,4.929-2.318,8.818-7.228 c1.699,3.315,2.401,7.028,3.36,10.601C1553.878,809.885,1553.891,813.528,1554.219,817.171z M1541.307,801.421 c-0.753-1.963,0.039-4.113-0.045-6.14c0.817,0.142,1.667,0.347,2.536,0.476c1.686-0.85,3.263-1.944,5.117-2.459 c0.29,3.006-2.207,5.098-3.887,7.254C1544.178,801.755,1542.55,801.395,1541.307,801.421z M1539.46,782.852 c0.901,1.892,2.034,3.669,3.154,5.452c6.326,0.077,7.523-1.825,8.213,0.528c-0.47,1.146-1.062,2.233-1.564,3.36 c-1.879,0.193-3.829,0.367-5.535-0.56c-4.419,1.834-4.117,1.165-7.543-2.311C1536.763,787.029,1536.571,783.431,1539.46,782.852z M1535.386,817.866c-1.77-0.013-3.534-0.019-5.284-0.032c0.83-5.175,2.221-10.24,2.877-15.441c0.386,0.019,1.165,0.045,1.551,0.058 c0.451,0.463,0.927,0.94,1.423,1.422C1534.845,808.449,1535.605,813.206,1535.386,817.866z M1534.105,799.059 c-0.142-2.24,1.023-4.28,1.583-6.391c3.205,1.854,3.791,6.295,1.467,9.095C1535.328,802.38,1534.53,800.449,1534.105,799.059z M1536.706,782.446c-0.341,1.274-0.638,2.562-0.856,3.875h-1.532c-0.567-1.287-1.152-2.555-1.693-3.823 C1533.963,782.459,1535.328,782.453,1536.706,782.446z M1526.395,782.916c1.403,0.225,2.851,0.457,4.177,1.075 c1.616,2.079,2.987,4.37,3.965,6.829c-0.373,2.079-0.985,4.107-1.442,6.173c-2.761-2.124-4.055-5.445-5.908-8.264 C1525.828,787.093,1526.51,784.841,1526.395,782.916z M1516.36,797.54c0.173-1.007,3.136-16.046,5.497-17.9 c2.588,1.635,0.528,5.213,1.577,7.653c2.149,4.645,7.856,11.496,8.496,14.43c-0.669,5.355-1.983,10.614-2.646,15.969 c-5.934,0.348-11.888,0.11-17.829,0.142C1512.769,805.972,1515.7,801.891,1516.36,797.54z M1554.702,945.216 c-2.124-0.193-4.248-0.29-6.353-0.47c-3.161,0.257-2.587,4.866-5.471,5.509c-3.134,0.689-6.288-0.167-9.403-0.431 c-26.186-0.261-29.065,0.419-31.744-0.792c-0.925-2.41-0.785,0.985-0.695-63.585c0.888-0.006,1.796-0.006,2.723,0.006 c2.889,4.414,29.672,45.636,33.791,56.627c0.444,0,1.326,0.013,1.77,0.019c-0.821-3.138-25.458-51.417-27.992-56.634 c8.58,0.026,17.172-0.193,25.752,0.122c-1.873,1.783-3.714,3.926-6.404,4.364c-2.864,0.251-5.091,2.33-7.878,2.909 c-1.937,0.161-0.805,3.54,0.882,2.774c2.703-1.197,5.787-1.59,8.162-3.45c1.384-0.882,2.974-1.352,4.486-1.982 c0.933,0.496,1.911,0.92,2.935,1.307c-0.174-0.747-0.341-1.48-0.496-2.201c0.779-0.47,1.577-0.933,2.388-1.39 c0.007-0.863,0.026-1.718,0.071-2.555c3.334,1.255,6.9,1.66,10.304,2.729c0.142,3.579-0.618,7.112-1.686,10.51 c4.171,3.805,2.773,3.716,2.156,9.268c0.869,0.039,1.757,0.084,2.665,0.135C1554.663,908.007,1555.064,934.284,1554.702,945.216z M1557.617,795.152c-1.01,2.208-0.418,4.692-1.139,6.977c-1.519-1.558-0.94-3.842-1.583-5.728c-0.341-1.371-0.991-2.71-0.83-4.132 c0.592-1.274,1.442-2.407,2.195-3.585C1558.151,790.234,1558.48,792.951,1557.617,795.152z M1578.233,939.191 c-0.322,0.875-0.567,1.789-0.856,2.684c-3.012-0.695-6.115-0.406-9.159-0.438c0.154-7.421-0.18-14.849,0.135-22.263 c2.576,2.504-0.284,10.114,2.632,13.799c2.826,0.232,5.671-0.045,8.515,0.097c1.101,3.244,3.161,6.057,4.37,9.268 C1581.676,941.882,1580.248,940.015,1578.233,939.191z M1571.565,919.863c2.574,3.765,4.866,7.782,6.591,12.017 c-2.214-0.251-4.39-0.702-6.559-1.075C1571.288,927.162,1571.475,923.506,1571.565,919.863z M1578.979,903.63 c-3.521-5.22-7.221-10.408-9.68-16.226c1.455,0.026,2.935,0.096,4.415,0.187c1.378,2.896,37.112,60.427,38.76,64.692 C1610.299,952.733,1611.658,954.9,1578.979,903.63z M1630.921,954.439c-5.207-1.738-10.884-1.017-16.194-2.201 c-1.33-2.231-28.737-61.293-29.871-64.531c0.856,0.367,1.712,0.805,2.51,1.377c1.75-0.322,3.533-0.496,5.31-0.773v1.648 c1.976-2.266,5.053-1.448,7.711-1.474c3.566,0.161,7.145,0.161,10.717,0.444c0.09,0.779,0.225,1.59,0.36,2.401 c2.087,1.201,37.698,62.174,38.901,64.286C1648.31,955.694,1632.755,954.047,1630.921,954.439z M1667.576,956.003 c-0.626-1.002-43.979-69.938-49.766-77.61c3.45,0.219,6.926,0.29,10.388,0.006c-0.373,0.2-1.12,0.605-1.493,0.811 c0.579,0.367,1.184,0.753,1.808,1.159c0.197,2.984,2.216,5.518,11.695,20.616c1.075,0.978,2.793,1.319,3.205,2.941 c2.659,8.412,21.739,32.453,32.948,54.233C1673.407,958.011,1669.372,959.08,1667.576,956.003z M1693.94,960.032 c-10.173-17.926-35.042-57.532-49.451-82.385c1.062,0.553,2.162,1.094,3.231,1.712c0,0,13.472,23.217,35.696,56.93 c4.366,7.98,5.294,6.37,14.269,23.84C1696.411,960.09,1695.169,960.064,1693.94,960.032z M1972.648,979.489 c3.224-2.427,7.408-2.253,11.218-1.822c5.413,0.702,10.929-0.006,16.322,0.991c8.549,0.938,5.9-1.674,12.905,2.671 C2013.093,981.33,1972.648,979.49,1972.648,979.489z M2129.115,1092.634c-10.411,3.68-7.494,3.286-13.535,8.155 c-2.532-6.25,0.677-11.156-1.249-22.109c4.377-0.257,8.779-0.155,13.175-0.142c0.83-0.155,1.969,0.36,1.918,1.384 C2129.495,1084.151,2129.663,1088.419,2129.115,1092.634z M2155.73,1093.954c0.367-0.534,0.805-1.023,1.307-1.467 c0.714,1.133,0.727,2.484,0.811,3.804C2156.83,1095.795,2156.174,1094.919,2155.73,1093.954z M2199.034,1086.23 c-0.624,4.654,0.277,9.384-0.052,14.083c-2.929,0.631-5.909,0.579-8.87,0.669c-2.529-1.268-4.653-3.257-7.241-4.422 c-2.478-1.654-5.793-1.448-7.936-3.598c-4.743,0.953-9.539,1.995-14.372,2.214c-1.48-1.081-0.656-3.186-0.856-4.737 c1.667-0.463,3.173-1.416,4.293-2.761c-3.527-0.439-14.618,1.759-17.153,2.485c-0.007,0.47-0.007,1.41-0.007,1.879 c1.886-0.006,3.791,0,5.709,0c0.805,1.371,2.021,2.742,1.461,4.46c-1.191,0.026-2.33,0.09-3.476,0.148 c-4.248-4.963-11.315-4.319-17.185-4.789c0.052-4.164-0.212-8.335,0.09-12.486c0.805-1.811,7.492-0.266,12.718-0.766 c0,0,52.717-0.077,52.72-0.077c0.071,1.487,0.193,2.987,0.483,4.473c-0.566,0.489-1.126,0.985-1.641,1.5 C2198.133,1085.065,2198.57,1085.638,2199.034,1086.23z M2261.306,1095.099c-2.656,5.8,2.497,3.313-39.146,4.673 c-0.019-2.369-0.019-4.731-0.013-7.08h-1.223c0.058,2.587-0.328,5.149-0.798,7.698c-1.474-0.38-2.974-0.631-4.454-0.766 c-0.418-1.223-0.36-2.465,0.116-3.636c0,0-0.205-13.4,0.032-16.612c0.963-1.628,41.031-0.526,45.596-1.403 C2261.319,1083.675,2261.589,1089.397,2261.306,1095.099z M2326.67,1096.196c-0.246,0.139-51.667,2.913-60.576,2.18 c-1.764-1.384-0.702-3.804-0.837-5.651c-1.346-18.413-0.241-14.662,22.106-15.287c45.175-1.264,40.536-2.925,40.744,5.477 C2328.187,1086.072,2330.068,1094.272,2326.67,1096.196z M2342.977,1095.827c-3.624,0.476-7.208,0.412-10.82-0.006 c-0.107-2.44,1.456-12.798,0.193-18.511c2.98-1.526,6.578-1.088,9.848-0.843c4.564,0.341,9.082-0.85,13.645-0.341 c-2.194,2.372-6.679,3.534-8.503,8.683c-0.946,0.154-1.879,0.322-2.755,0.534C2345.03,1088.959,2343.749,1092.358,2342.977,1095.827 z M2365.356,1093.581c-0.367,0.811-0.547,2.343-1.68,2.304c-5.362-0.019-10.691,0.47-16.027-0.116 c0.386-1.242,0.804-2.472,1.236-3.694c1.48-0.026,2.987-0.032,4.512-0.032c2.885-3.79,3.082-8.819,12.924-7.666 c-0.019,1.216-0.013,2.446,0.026,3.688c-0.553,0.083-1.654,0.238-2.207,0.322C2364.712,1090.053,2366.289,1091.72,2365.356,1093.581 z M2370.576,1076.042c4.286-0.109,8.586-0.2,12.879,0.051c-1.667,2.497-4.241,4.145-6.52,5.999 C2374.991,1079.877,2372.706,1078.037,2370.576,1076.042z M2401.084,1082.355c-1.113,0.013-2.201,0.039-3.25,0.084 c0.656,3.585-0.599,7.016-0.721,10.575c-1.236,0.341-2.298,1.011-2.884,2.156c0,0-6.728,0.796-17.719,0.714 c0.341-2.111,0.76-4.203,0.895-6.333c2.085-1.236,4.493-2.188,5.851-4.332c1.339,0.393,2.677,0.933,4.126,1.043 c1.719-2.349,3.006-5.291,5.754-6.668c2.471-1.152,5.831-1.937,7.981,0.296C2401.072,1080.695,2401.059,1081.519,2401.084,1082.355z M2448.714,1093.967c0,0-8.958,0.605-41.006,1.287c-0.303-0.65-0.573-1.281-0.824-1.899c1.777-2.259,1.95-5.201,2.433-7.917 c0.605-3.398-0.792-6.687-1.802-9.854c1.648,0.357,40.186-0.262,41.199-0.27C2448.714,1081.532,2448.707,1087.749,2448.714,1093.967 z M2453.219,1093.979c-0.023-17.181-0.221-16.356,0.656-19.315c7.499,0.013,15.003,0,22.514,0.006 C2476.187,1096.786,2479.412,1093.439,2453.219,1093.979z M2546.334,1087.447c-3.077,7.325-4.271,5.171-25.69,5.485 c-4.331,0.063-41.748,1.201-41.074-1.173c5.948-20.78-14.827-17.144,36.752-18.713c9.851-0.3,20.314-1.719,30.129-0.95 C2547.028,1074.092,2546.422,1086.447,2546.334,1087.447z M2559.419,1084.988c0.045,2.066-1.809,3.649-1.493,5.773 c-2.838-0.129-5.664,0.052-8.406,0.702c3.134-6.057,0.579-13.111,1.789-19.547c1-0.042,7.911-0.035,8.593,0.914 C2559.097,1076.84,2559.516,1080.927,2559.419,1084.988z"/> <path d="M133.721,1232.373C135.673,1231.381,133.824,1234.487,133.721,1232.373L133.721,1232.373z"/> <path d="M149.693,1213.798C151.807,1213.888,148.714,1215.744,149.693,1213.798L149.693,1213.798z"/> <path d="M177.495,1163.547C179.647,1163.663,176.452,1165.416,177.495,1163.547L177.495,1163.547z"/> <path d="M490.556,1021.798C492.676,1021.894,489.564,1023.737,490.556,1021.798L490.556,1021.798z"/> <path d="M620.18,1102.872C622.119,1101.867,620.283,1104.979,620.18,1102.872L620.18,1102.872z"/> <path d="M687.724,1143.574C689.837,1143.677,686.725,1145.507,687.724,1143.574L687.724,1143.574z"/> </svg>